<svg width="37" height="37" viewBox="0 0 37 37" fill="none" xmlns="http://www.w3.org/2000/svg">
<circle cx="18.5" cy="18.5" r="18.5" fill="#081800"/>
<g clip-path="url(#clip0_1169_21)">
<path d="M21.5667 12H15.4333C13.508 12 12 13.508 12 15.4333V21.5667C12 23.492 13.508 25 15.4333 25H21.5667C23.492 25 25 23.492 25 21.5667V15.4333C25 13.508 23.4916 12 21.5667 12ZM24.1613 21.5667C24.1613 23.0219 23.0215 24.1613 21.5667 24.1613H15.4333C13.9785 24.1613 12.8387 23.0215 12.8387 21.5667V15.4333C12.8387 13.9785 13.9785 12.8387 15.4333 12.8387H21.5667C23.0219 12.8387 24.1613 13.9785 24.1613 15.4333V21.5667Z" fill="white"/>
<path d="M22.59 15.319C22.4554 15.2205 22.275 15.2121 22.1312 15.296C21.9878 15.3803 21.6699 15.4218 21.415 15.4553C21.3621 15.4625 21.3101 15.4692 21.2598 15.4763C20.9029 15.1802 20.4471 15.0142 19.977 15.0142C18.9181 15.0142 18.0492 15.8336 17.9876 16.8644C17.0272 16.7025 16.1479 16.2018 15.5247 15.4495C15.432 15.3371 15.2882 15.2821 15.1431 15.301C14.9988 15.3211 14.8755 15.4146 14.8172 15.548C14.7904 15.6092 14.5564 16.185 14.5564 17.6091C14.5564 18.8425 15.5297 19.7487 16.1973 20.2255C15.7407 20.4331 15.2144 20.5094 14.7145 20.454C14.5191 20.4331 14.3362 20.548 14.2717 20.7321C14.2071 20.9166 14.2784 21.1212 14.4436 21.2256C15.232 21.723 16.1432 21.9859 17.0792 21.9859C20.0852 21.9859 21.9043 19.6245 21.9719 17.2963C22.0582 17.1709 22.223 16.9268 22.5015 16.4987C22.613 16.3263 22.7066 15.9548 22.7523 15.7489C22.7888 15.5862 22.7246 15.4172 22.59 15.319ZM21.2153 16.9151C21.1638 16.9864 21.1357 17.0728 21.1357 17.1608C21.1357 18.816 19.8772 21.1472 17.0797 21.1472C16.8268 21.1472 16.576 21.1242 16.3303 21.0789C16.6582 20.9547 16.9681 20.7815 17.2529 20.5622C17.3669 20.4746 17.4277 20.3337 17.4143 20.1907C17.4009 20.0477 17.3149 19.921 17.1862 19.856C17.1681 19.8468 15.3955 18.9146 15.3955 17.6095C15.3955 17.1722 15.419 16.8283 15.4501 16.5666C16.2732 17.2753 17.3208 17.6993 18.4233 17.7538C18.4317 17.7542 18.4405 17.7546 18.4484 17.7542C18.6925 17.7471 18.872 17.568 18.872 17.3349C18.872 17.277 18.8602 17.2221 18.8389 17.1717C18.8284 17.1088 18.8229 17.0455 18.8229 16.9822C18.8229 16.3595 19.3404 15.8529 19.977 15.8529C20.2965 15.8529 20.6039 15.9837 20.8207 16.2114C20.9197 16.3146 21.0644 16.3611 21.204 16.3339C21.2992 16.3158 21.4091 16.3016 21.5244 16.2865C21.5655 16.281 21.607 16.2756 21.6494 16.2697C21.3344 16.7495 21.2208 16.9075 21.2153 16.9151Z" fill="white"/>
</g>
<defs>
<clipPath id="clip0_1169_21">
<rect width="13" height="13" fill="white" transform="translate(12 12)"/>
</clipPath>
</defs>
</svg>
