<svg width="37" height="37" viewBox="0 0 37 37" fill="none" xmlns="http://www.w3.org/2000/svg">
<circle cx="18.5" cy="18.5" r="18.5" fill="#081800"/>
<path d="M20.5922 18.0777L16.8422 15.5874C16.6977 15.4915 16.5156 15.4864 16.3665 15.5741C16.2175 15.6619 16.125 15.8287 16.125 16.0098V20.9902C16.125 21.1713 16.2175 21.3381 16.3665 21.4259C16.4373 21.4676 16.5156 21.4883 16.5938 21.4883C16.6801 21.4883 16.7663 21.4629 16.8422 21.4126L20.5922 18.9223C20.7293 18.8313 20.8125 18.6717 20.8125 18.5C20.8125 18.3283 20.7293 18.1687 20.5922 18.0777ZM17.0625 20.0916V16.9083L19.4593 18.5L17.0625 20.0916Z" fill="white"/>
<path d="M23.6562 12.0254H12.3438C11.0514 12.0254 10 13.1425 10 14.5156V22.4844C10 23.8575 11.0514 24.9746 12.3438 24.9746H23.6562C24.9486 24.9746 26 23.8575 26 22.4844V14.5156C26 13.1425 24.9486 12.0254 23.6562 12.0254ZM25.0625 22.4844C25.0625 23.3082 24.4317 23.9785 23.6562 23.9785H12.3438C11.5683 23.9785 10.9375 23.3082 10.9375 22.4844V14.5156C10.9375 13.6918 11.5683 13.0215 12.3438 13.0215H23.6562C24.4317 13.0215 25.0625 13.6918 25.0625 14.5156V22.4844Z" fill="white"/>
</svg>
